<svg width="16" height="16" viewBox="0 0 16 16" fill="none" xmlns="http://www.w3.org/2000/svg">
<path fill-rule="evenodd" clip-rule="evenodd" d="M15.6303 2.79411L13.2059 0.369684C12.9592 0.122947 12.6358 0 12.3124 0C11.9882 0 11.6657 0.122947 11.4189 0.369684L8.42105 3.36842H0.842105C0.377263 3.36842 0 3.74484 0 4.21053V15.1579C0 15.6236 0.377263 16 0.842105 16H11.7895C12.2543 16 12.6316 15.6236 12.6316 15.1579V7.57895L15.6303 4.58021C15.8771 4.33347 16 4.01011 16 3.68674C16 3.36337 15.8771 3.04084 15.6303 2.79411ZM7.1579 10.6712L5.32884 8.8421L10.6282 3.54274L12.4573 5.37179L7.1579 10.6712ZM6.48 10.9987L5.00126 9.54358L5.05263 10.9474L6.48 10.9987ZM10.9474 14.3158H1.68421V5.05263H6.73684L4.05895 7.73053C3.81221 7.97726 3.65642 8.41432 3.52926 8.816C3.39453 9.23705 3.36842 9.70526 3.36842 10.0539V12.6316H5.94611C6.29474 12.6316 6.87916 12.5474 7.26905 12.3874L7.37858 12.3428C7.72722 12.2015 8.04672 12.0719 8.26947 11.8484L10.9474 9.26316V14.3158ZM11.2236 2.94737L13.0526 4.77642L14.1406 3.68758L12.3124 1.85853L11.2236 2.94737Z" fill="#2F2F2F"/>
</svg>
