<svg width="16" height="16" viewBox="0 0 16 16" fill="none" xmlns="http://www.w3.org/2000/svg">
<path fill-rule="evenodd" clip-rule="evenodd" d="M2.4 0H13.6C14.9232 0 16 1.0768 16 2.4C16 3.7232 14.9232 4.8 13.6 4.8H2.4C1.0768 4.8 0 3.7232 0 2.4C0 1.0768 1.0768 0 2.4 0ZM13.6 1.6C14.04 1.6 14.4 1.96 14.4 2.4C14.4 2.84 14.04 3.2 13.6 3.2H2.4C1.96 3.2 1.6 2.84 1.6 2.4C1.6 1.96 1.96 1.6 2.4 1.6H13.6ZM2.4 5.6H13.6C14.9232 5.6 16 6.6768 16 8C16 9.3232 14.9232 10.4 13.6 10.4H2.4C1.0768 10.4 0 9.3232 0 8C0 6.6768 1.0768 5.6 2.4 5.6ZM13.6 7.2C14.04 7.2 14.4 7.56 14.4 8C14.4 8.44 14.04 8.8 13.6 8.8H2.4C1.96 8.8 1.6 8.44 1.6 8C1.6 7.56 1.96 7.2 2.4 7.2H13.6ZM2.4 11.2H13.6C14.9232 11.2 16 12.2768 16 13.6C16 14.9232 14.9232 16 13.6 16H2.4C1.0768 16 0 14.9232 0 13.6C0 12.2768 1.0768 11.2 2.4 11.2ZM14.4 13.6C14.4 13.16 14.04 12.8 13.6 12.8H2.4C1.96 12.8 1.6 13.16 1.6 13.6C1.6 14.04 1.96 14.4 2.4 14.4H13.6C14.04 14.4 14.4 14.04 14.4 13.6Z" fill="#2F2F2F"/>
</svg>
