<svg width="16" height="16" viewBox="0 0 16 16" fill="none" xmlns="http://www.w3.org/2000/svg">
<path fill-rule="evenodd" clip-rule="evenodd" d="M8 0C3.58844 0 0 3.58933 0 8C0 12.4107 3.58844 16 8 16C12.4116 16 16 12.4107 16 8C16 3.58933 12.4116 0 8 0ZM8 14.2222C4.56978 14.2222 1.77778 11.4311 1.77778 8C1.77778 4.56889 4.56978 1.77778 8 1.77778C11.4302 1.77778 14.2222 4.56889 14.2222 8C14.2222 11.4311 11.4302 14.2222 8 14.2222ZM10.9804 5.648L8.62844 8L10.9813 10.3529C11.1538 10.5262 11.1538 10.8089 10.9813 10.9813C10.8942 11.0676 10.7804 11.1111 10.6667 11.1111C10.5529 11.1111 10.4391 11.0676 10.352 10.9804L8 8.62844L5.648 10.9813C5.56089 11.0676 5.44711 11.1111 5.33333 11.1111C5.21956 11.1111 5.10578 11.0676 5.01956 10.9804C4.84622 10.808 4.84622 10.5253 5.01956 10.352L7.37156 8L5.01956 5.64711C4.84622 5.47467 4.84622 5.192 5.01956 5.01867C5.192 4.84622 5.47467 4.84622 5.648 5.01867L8 7.37156L10.352 5.01956C10.5244 4.84711 10.8071 4.84711 10.9804 5.01956C11.1529 5.19289 11.1529 5.47556 10.9804 5.648Z" fill="#2F2F2F"/>
</svg>
