<svg width="10" height="14" viewBox="0 0 10 14" fill="none" xmlns="http://www.w3.org/2000/svg">
<path fill-rule="evenodd" clip-rule="evenodd" d="M0.753676 4.26471C0.753676 2.18508 2.4389 0.5 4.52206 0.5C6.60522 0.5 8.29044 2.18508 8.29044 4.26471C8.29044 6.34433 6.60522 8.02941 4.52206 8.02941C2.4389 8.02941 0.753676 6.34433 0.753676 4.26471ZM6.78309 4.26471C6.78309 3.01934 5.76864 2.00588 4.52206 2.00588C3.27548 2.00588 2.26103 3.01934 2.26103 4.26471C2.26103 5.51007 3.27548 6.52353 4.52206 6.52353C5.76864 6.52353 6.78309 5.51007 6.78309 4.26471ZM4.52206 10.2882C6.04524 10.2882 7.00994 10.8688 7.37322 11.3762C6.85846 11.572 5.88923 11.7941 4.52206 11.7941C3.02676 11.7941 2.10577 11.5645 1.64452 11.386C1.99046 10.8477 2.98381 10.2882 4.52206 10.2882ZM0 11.7941C0 10.2882 1.69577 8.78235 4.52206 8.78235C7.26996 8.78235 9.04412 10.2882 9.04412 11.7941C9.04412 12.5471 7.17349 13.3 4.52206 13.3C1.69577 13.3 0 12.5471 0 11.7941Z" fill="#F5F5F5"/>
</svg>
